<svg width="827" height="293" viewBox="0 0 827 293" fill="none" xmlns="http://www.w3.org/2000/svg">
<path d="M71.424 80.64L73.472 76.288C80.896 76.4587 87.04 77.6533 91.904 79.872C96.768 82.0053 100.352 84.9493 102.656 88.704C104.96 92.3733 106.112 96.5973 106.112 101.376C106.112 106.496 104.875 111.061 102.4 115.072C100.011 119.083 96.4693 122.24 91.776 124.544C87.0827 126.848 81.1947 128 74.112 128H6.784L14.208 78.72L6.784 32H71.68C80.5547 32 87.424 34.0907 92.288 38.272C97.2373 42.368 99.712 48.0427 99.712 55.296C99.712 59.2213 98.7733 63.0187 96.896 66.688C95.104 70.3573 92.1173 73.472 87.936 76.032C83.84 78.5067 78.336 80.0427 71.424 80.64ZM28.288 122.496L19.968 112H69.632C74.24 112 77.7813 110.933 80.256 108.8C82.816 106.581 84.096 103.509 84.096 99.584C84.096 95.5733 82.6453 92.416 79.744 90.112C76.8427 87.7227 72.576 86.528 66.944 86.528H26.496V70.912H64.384C68.224 70.912 71.3813 69.8453 73.856 67.712C76.416 65.4933 77.696 62.4213 77.696 58.496C77.696 55.5093 76.6293 53.0347 74.496 51.072C72.3627 49.024 69.2907 48 65.28 48H19.968L28.288 37.504L35.072 78.72L28.288 122.496ZM171.684 129.92C160.505 129.92 150.692 127.829 142.244 123.648C133.881 119.467 127.353 113.664 122.66 106.24C117.967 98.7307 115.62 89.984 115.62 80C115.62 70.016 117.967 61.312 122.66 53.888C127.353 46.3787 133.881 40.5333 142.244 36.352C150.692 32.1707 160.505 30.08 171.684 30.08C182.863 30.08 192.633 32.1707 200.996 36.352C209.444 40.5333 216.015 46.3787 220.708 53.888C225.401 61.312 227.748 70.016 227.748 80C227.748 89.984 225.401 98.7307 220.708 106.24C216.015 113.664 209.444 119.467 200.996 123.648C192.633 127.829 182.863 129.92 171.684 129.92ZM171.684 110.592C178.681 110.592 184.697 109.355 189.732 106.88C194.852 104.405 198.777 100.864 201.508 96.256C204.324 91.648 205.732 86.2293 205.732 80C205.732 73.7707 204.324 68.352 201.508 63.744C198.777 59.136 194.852 55.5947 189.732 53.12C184.697 50.6453 178.681 49.408 171.684 49.408C164.772 49.408 158.756 50.6453 153.636 53.12C148.516 55.5947 144.548 59.136 141.732 63.744C139.001 68.352 137.636 73.7707 137.636 80C137.636 86.2293 139.001 91.648 141.732 96.256C144.548 100.864 148.516 104.405 153.636 106.88C158.756 109.355 164.772 110.592 171.684 110.592ZM231.048 147.584V108.8H248.968L258.184 109.056H327.304L332.552 108.8H358.408V147.584H338.056V128H251.4V147.584H231.048ZM251.656 32H341.64V121.088H320.008V41.216L329.736 50.944H263.304L272.392 43.904C272.904 48.1707 273.245 52.3947 273.416 56.576C273.587 60.7573 273.672 64.6827 273.672 68.352C273.672 78.7627 272.861 87.5947 271.24 94.848C269.619 102.016 267.187 107.477 263.944 111.232C260.701 114.901 256.691 116.736 251.912 116.736L242.952 109.184C246.536 105.088 249.181 99.328 250.888 91.904C252.68 84.3947 253.576 75.0507 253.576 63.872C253.576 58.9227 253.405 53.76 253.064 48.384C252.723 43.008 252.253 37.5467 251.656 32ZM420.309 129.92C409.13 129.92 399.317 127.829 390.869 123.648C382.506 119.467 375.978 113.664 371.285 106.24C366.592 98.7307 364.245 89.984 364.245 80C364.245 70.016 366.592 61.312 371.285 53.888C375.978 46.3787 382.506 40.5333 390.869 36.352C399.317 32.1707 409.13 30.08 420.309 30.08C431.488 30.08 441.258 32.1707 449.621 36.352C458.069 40.5333 464.64 46.3787 469.333 53.888C474.026 61.312 476.373 70.016 476.373 80C476.373 89.984 474.026 98.7307 469.333 106.24C464.64 113.664 458.069 119.467 449.621 123.648C441.258 127.829 431.488 129.92 420.309 129.92ZM420.309 110.592C427.306 110.592 433.322 109.355 438.357 106.88C443.477 104.405 447.402 100.864 450.133 96.256C452.949 91.648 454.357 86.2293 454.357 80C454.357 73.7707 452.949 68.352 450.133 63.744C447.402 59.136 443.477 55.5947 438.357 53.12C433.322 50.6453 427.306 49.408 420.309 49.408C413.397 49.408 407.381 50.6453 402.261 53.12C397.141 55.5947 393.173 59.136 390.357 63.744C387.626 68.352 386.261 73.7707 386.261 80C386.261 86.2293 387.626 91.648 390.357 96.256C393.173 100.864 397.141 104.405 402.261 106.88C407.381 109.355 413.397 110.592 420.309 110.592ZM503.484 32H593.852V128H572.22V41.344L581.948 51.2H515.516L524.732 44.032C525.415 50.2613 525.884 56.2347 526.14 61.952C526.481 67.6693 526.652 73.0453 526.652 78.08C526.652 90.1973 525.585 100.053 523.452 107.648C521.319 115.243 517.991 120.832 513.468 124.416C508.945 128 503.015 129.792 495.676 129.792C492.775 129.792 489.873 129.451 486.972 128.768C484.071 128.171 481.425 127.275 479.036 126.08V107.904C482.705 109.355 486.119 110.08 489.276 110.08C495.249 110.08 499.559 107.349 502.204 101.888C504.849 96.3413 506.172 87.3387 506.172 74.88C506.172 69.248 505.959 62.848 505.532 55.68C505.105 48.512 504.423 40.6187 503.484 32ZM692.966 71.68V88.32H624.23V71.68H692.966ZM638.822 80L632.422 120.704L622.95 109.952H696.934V128H610.534L617.958 80L610.534 32H696.294V50.048H622.95L632.422 39.296L638.822 80ZM713.481 128V32H734.729V116.992L728.201 115.712L788.873 32H817.161V128H795.913V41.856L802.441 43.136L741.001 128H713.481ZM734.473 3.58399H751.753C752.777 6.57066 754.356 8.87466 756.489 10.496C758.708 12.1173 761.481 12.928 764.809 12.928C768.137 12.928 770.868 12.1173 773.001 10.496C775.22 8.87466 776.798 6.57066 777.737 3.58399H795.145C793.438 11.0933 789.897 16.5973 784.521 20.096C779.145 23.5947 772.574 25.344 764.809 25.344C757.044 25.344 750.473 23.5947 745.097 20.096C739.721 16.5973 736.18 11.0933 734.473 3.58399Z" fill="#0C0C0C"/>
<path d="M811.986 181.77C800.5 178.293 700.78 169.433 531 191.5C361.22 213.567 254.986 172.152 231 169.046C236.5 169.836 371.72 191.112 541.5 169.046C711.28 146.979 809 180.866 811.986 181.77Z" fill="#0062BD" style="mix-blend-mode:multiply"/>
<path d="M811.952 215.4C811.952 215.4 731.836 189.118 601.5 212.805C471.164 236.491 392 222.283 374.5 219C376.784 218.585 465.164 252.639 595.5 228.952C725.836 205.265 811.495 215.049 811.952 215.4Z" fill="#003464" style="mix-blend-mode:multiply"/>
<path d="M171.5 103C167.655 103 163.966 101.489 161.247 98.7983C158.528 96.1081 157 92.4594 157 88.655C157 82.7627 159.755 78.3462 163.111 72.9652C165.722 68.78 168.697 64.0112 171.023 57.5106C171.159 57.1307 171.498 56 171.498 56C171.498 56 171.499 56.0025 171.5 56.0072C171.501 56.0025 171.502 56 171.502 56C171.502 56 171.841 57.1307 171.977 57.5106C174.303 64.0112 177.278 68.78 179.889 72.9652C183.245 78.3462 186 82.7627 186 88.655C186 92.4594 184.472 96.1081 181.753 98.7983C179.053 101.47 175.319 103 171.5 103Z" fill="#003464"/>
</svg>
