<svg width="92" height="104" viewBox="0 0 92 104" fill="none" xmlns="http://www.w3.org/2000/svg">
<path d="M34.1449 51.3728C40.4305 55.3988 48.1415 55.8268 55.3121 52.5299C56.8391 51.8299 57.5065 50.0236 56.8028 48.4966C56.1028 46.9697 54.2966 46.3022 52.7696 47.0059C47.5285 49.4178 41.9357 49.1422 37.4273 46.2551C33.0277 43.4369 30.3981 38.6457 30.3981 33.4445C30.3981 25.0625 37.2169 18.2436 45.5989 18.2436C53.981 18.2436 60.7998 25.0625 60.7998 33.4445C60.7998 35.1202 59.4361 36.4839 57.7604 36.4839C56.2298 36.4839 54.7971 35.3233 54.7209 33.488C54.7209 33.4735 54.7209 33.459 54.7209 33.4409C54.7209 28.4102 50.6296 24.319 45.5989 24.319C40.5683 24.319 36.477 28.4102 36.477 33.4409C36.477 38.4715 40.5683 42.5629 45.5989 42.5629C47.9347 42.5629 50.0638 41.6815 51.6779 40.2343C53.2919 41.6815 55.4246 42.5629 57.7567 42.5629C62.7874 42.5629 66.8787 38.4715 66.8787 33.4409C66.8787 21.7075 57.3324 12.1575 45.5953 12.1575C33.8583 12.1575 24.312 21.7038 24.312 33.4409C24.3156 40.7275 27.9898 47.4303 34.1449 51.3728ZM45.5989 36.4804C43.9233 36.4804 42.5595 35.1165 42.5595 33.4409C42.5595 31.7652 43.9233 30.4014 45.5989 30.4014C47.1586 30.4014 48.4462 31.5802 48.6166 33.0926C48.5695 33.3683 48.5622 33.6512 48.5949 33.9269C48.3627 35.3741 47.1078 36.4804 45.5989 36.4804Z" fill="#003464"/>
<path d="M91.2014 39.9226C91.2014 39.1355 90.8822 38.3485 90.3128 37.7791L79.0436 26.5063V3.03949C79.0436 1.36018 77.6835 0 76.0042 0H15.1972C13.5179 0 12.1578 1.36018 12.1578 3.03949V26.5063L0.888602 37.7791C0.877721 37.79 0.870483 37.8009 0.859602 37.8117C0.29016 38.3993 0 39.1718 0 39.9226V39.9299V94.6544C0 99.6887 4.09853 103.776 9.12195 103.776H82.0903C87.1246 103.776 91.2123 99.6814 91.2123 94.6544V39.9299C91.2014 39.9262 91.2014 39.9226 91.2014 39.9226ZM83.8639 39.9299L79.0436 44.7502V35.106L83.8639 39.9299ZM72.9611 6.07887V27.7648V27.7685V50.8327L56.5017 67.2921H34.696L18.2367 50.8327V27.7685V27.7648V6.07887H72.9611ZM12.1541 44.7502L7.33384 39.9299L12.1541 35.1095V44.7502ZM6.07527 93.3958V47.2709L29.1395 70.3352L6.07527 93.3958ZM10.3733 97.6938L34.696 73.371H56.5017L80.8245 97.6938H10.3733ZM85.1225 93.3958L62.0583 70.3315L85.1225 47.2674V93.3958Z" fill="#003464"/>
</svg>
