<svg width="34" height="34" viewBox="0 0 34 34" fill="none" xmlns="http://www.w3.org/2000/svg">
<g clip-path="url(#clip0_230_133)">
<mask id="mask0_230_133" style="mask-type:luminance" maskUnits="userSpaceOnUse" x="0" y="0" width="34" height="34">
<path d="M34 0H0V34H34V0Z" fill="white"/>
</mask>
<g mask="url(#mask0_230_133)">
<path d="M23.8303 7.79357C20.7596 3.65151 17.6449 0.300424 17.6136 0.2671C17.4548 0.0967838 17.2325 0 16.9997 0C16.7669 0 16.5445 0.0966999 16.3858 0.2671C16.3546 0.300424 13.2398 3.65151 10.1691 7.79357C5.97447 13.4514 3.84766 17.8435 3.84766 20.8475C3.84766 28.0996 9.74761 34 16.9997 34C24.2519 34 30.1518 28.0998 30.1518 20.8475C30.1518 17.8435 28.0249 13.4515 23.8303 7.79357ZM18.3132 29.7438C17.6238 29.9067 16.9131 29.9894 16.2011 29.9894C11.14 29.9894 7.02239 25.8717 7.02239 20.8105C7.02239 20.1127 7.23719 18.8485 8.26052 16.7885C8.36334 16.5814 8.60014 16.4787 8.82183 16.5444C9.04335 16.6103 9.18529 16.8262 9.15818 17.0557C9.13468 17.2539 9.12284 17.4405 9.12284 17.6103C9.12284 23.0353 12.9813 27.7478 18.2975 28.8151C18.5163 28.8591 18.6752 29.0497 18.679 29.273C18.6829 29.4965 18.5306 29.6923 18.3132 29.7438Z" fill="#D5DEE6"/>
</g>
</g>
<defs>
<clipPath id="clip0_230_133">
<rect width="34" height="34" fill="white"/>
</clipPath>
</defs>
</svg>
