<?xml version="1.0" encoding="UTF-8"?>
<svg version="1.1" xmlns="http://www.w3.org/2000/svg" width="816" height="306">
<path d="M0 0 C-0.78383057 -0.0407666 -1.56766113 -0.0815332 -2.37524414 -0.12353516 C-37.9244652 -1.84920079 -73.41293526 -0.41366042 -108.7265625 4 C-125.10256793 6.02613728 -141.25309628 7.33423605 -157.76660156 7.26074219 C-160.63107314 7.24997718 -163.49492157 7.26074565 -166.359375 7.2734375 C-193.10221198 7.29347066 -218.1256457 2.42881787 -244 -4 C-244 -4.33 -244 -4.66 -244 -5 C-240.91652527 -4.85679515 -237.83324654 -4.71047816 -234.75 -4.5625 C-233.89664062 -4.52318359 -233.04328125 -4.48386719 -232.1640625 -4.44335938 C-227.56162311 -4.22010672 -222.97995597 -3.92227959 -218.390625 -3.5078125 C-179.70226924 -0.19902157 -140.38478263 -2.66328716 -101.93359375 -7.63671875 C-74.38525829 -11.10353535 -23.96830616 -15.97887078 0 0 Z " fill="#0861B6" transform="translate(577,183)"/>
<path d="M0 0 C12.87 0 25.74 0 39 0 C39 10.56 39 21.12 39 32 C41.31 32 43.62 32 46 32 C46 37.94 46 43.88 46 50 C43.03 50 40.06 50 37 50 C37 47.36 37 44.72 37 42 C25.12 42 13.24 42 1 42 C1 44.64 1 47.28 1 50 C-2.3 50 -5.6 50 -9 50 C-9 44.06 -9 38.12 -9 32 C-7.02 31.67 -5.04 31.34 -3 31 C0.76856284 24.71906193 0.12764578 16.70571254 0.0625 9.625 C0.041875 6.44875 0.02125 3.2725 0 0 Z M10 9 C9.71253648 14.27923743 9.71253648 14.27923743 9.43188477 19.55883789 C9.39377686 20.23164795 9.35566895 20.90445801 9.31640625 21.59765625 C9.27974854 22.27320557 9.24309082 22.94875488 9.20532227 23.64477539 C8.93225629 26.77707919 8.44465475 29.88741678 8 33 C14.93 33 21.86 33 29 33 C29 25.08 29 17.16 29 9 C22.73 9 16.46 9 10 9 Z " fill="#0C0C0C" transform="translate(339,119)"/>
<path d="M0 0 C4.46572364 -0.04958948 8.93129961 -0.085809 13.3972168 -0.10986328 C14.91514886 -0.11989545 16.43306173 -0.13352438 17.95092773 -0.15087891 C20.1379064 -0.17525035 22.32462864 -0.18651095 24.51171875 -0.1953125 C25.82615967 -0.20578613 27.14060059 -0.21625977 28.49487305 -0.22705078 C32.72259368 0.04680728 35.6417482 0.782257 38.8125 3.625 C40.52920237 7.05840474 40.55611331 10.27831861 40 14 C38.5 17.5 38.5 17.5 37 20 C37.804375 20.61875 38.60875 21.2375 39.4375 21.875 C42 24 42 24 43 26 C43.40049779 31.20647133 42.96843282 34.64629854 40 39 C35.3439053 41.94341323 31.35469908 42.40980547 25.9765625 42.29296875 C25.23038666 42.28872391 24.48421082 42.28447906 23.71542358 42.28010559 C21.35156902 42.26342382 18.98859324 42.22579339 16.625 42.1875 C15.0143353 42.17243949 13.40365713 42.15875348 11.79296875 42.14648438 C7.86164485 42.11355504 3.93097099 42.06184762 0 42 C0.144375 40.78183594 0.28875 39.56367188 0.4375 38.30859375 C0.62520796 36.68491986 0.8126963 35.06122057 1 33.4375 C1.09539062 32.63763672 1.19078125 31.83777344 1.2890625 31.01367188 C2.18207285 23.19983131 1.98742818 15.84850465 1 8.0625 C0.90460938 7.28326172 0.80921875 6.50402344 0.7109375 5.70117188 C0.47770389 3.80031793 0.23938136 1.90008953 0 0 Z M11 8 C11.33 10.64 11.66 13.28 12 16 C14.62561109 16.08074203 17.24875676 16.1403623 19.875 16.1875 C20.62136719 16.21263672 21.36773437 16.23777344 22.13671875 16.26367188 C24.56221828 16.3298764 24.56221828 16.3298764 28 16 C30.28600028 13.29667695 30.28600028 13.29667695 29.6875 10.875 C29.15421514 9.01406147 29.15421514 9.01406147 28 8 C25.13732433 7.92674832 22.299281 7.90761795 19.4375 7.9375 C18.63119141 7.94201172 17.82488281 7.94652344 16.99414062 7.95117188 C14.99606244 7.96299482 12.99802217 7.98093086 11 8 Z M12 24 C11.67 27.3 11.34 30.6 11 34 C13.91765891 34.10806144 16.83131125 34.18732877 19.75 34.25 C20.575 34.28351563 21.4 34.31703125 22.25 34.3515625 C27.30162387 34.48647097 27.30162387 34.48647097 31.578125 31.984375 C32.04734375 31.32953125 32.5165625 30.6746875 33 30 C32.21869929 27.50447516 32.21869929 27.50447516 31 25 C27.23699626 23.74566542 23.72789091 23.89304578 19.8125 23.9375 C18.68811523 23.94426758 18.68811523 23.94426758 17.54101562 23.95117188 C15.69397617 23.96293646 13.84697787 23.98087135 12 24 Z " fill="#0B0B0B" transform="translate(235,119)"/>
<path d="M0 0 C3.3 0 6.6 0 10 0 C10.33 9.57 10.66 19.14 11 29 C12.44375 26.97875 13.8875 24.9575 15.375 22.875 C15.85751221 22.19977295 16.34002441 21.5245459 16.8371582 20.82885742 C19.17955155 17.55076151 21.51961339 14.27103972 23.85546875 10.98828125 C24.30937988 10.35100098 24.76329102 9.7137207 25.23095703 9.05712891 C26.10899437 7.82427046 26.98629024 6.59088355 27.86279297 5.35693359 C30.88756759 1.11243241 30.88756759 1.11243241 32 0 C36.29 0 40.58 0 45 0 C45 13.86 45 27.72 45 42 C41.7 42 38.4 42 35 42 C34.67 32.43 34.34 22.86 34 13 C32.576875 15.000625 31.15375 17.00125 29.6875 19.0625 C28.76070787 20.33745132 27.833664 21.61221972 26.90625 22.88671875 C24.93734418 25.62094458 23.10854434 28.39977081 21.34375 31.26953125 C20.89942627 31.95587646 20.45510254 32.64222168 19.99731445 33.34936523 C19.14434468 34.66848736 18.3253813 36.01043338 17.54760742 37.37524414 C16.32421875 39.2109375 16.32421875 39.2109375 13 42 C8.71 42 4.42 42 0 42 C0 28.14 0 14.28 0 0 Z " fill="#0C0C0C" transform="translate(535,119)"/>
<path d="M0 0 C4.10927264 3.36213216 7.09589034 7.85359532 7.75 13.25 C8.41962672 21.15159533 6.44609401 26.98630726 1.375 33.125 C-4.48296731 37.86716401 -9.31956401 38.77297307 -16.625 38.75 C-17.43710937 38.77835938 -18.24921875 38.80671875 -19.0859375 38.8359375 C-26.02459593 38.85817679 -30.80159151 36.58603224 -35.77832031 31.77148438 C-40.67082051 26.24391707 -41.68309174 21.22467014 -41.5859375 14.0546875 C-41.07504258 9.78930899 -39.45764717 6.90641563 -37.25 3.25 C-36.59 3.25 -35.93 3.25 -35.25 3.25 C-34.92 2.26 -34.59 1.27 -34.25 0.25 C-32.54296875 -0.8828125 -32.54296875 -0.8828125 -30.4375 -1.875 C-29.75042969 -2.20757812 -29.06335938 -2.54015625 -28.35546875 -2.8828125 C-18.45176129 -6.96189052 -9.06258821 -4.87985519 0 0 Z M-28.5625 9.5 C-30.65893453 12.91641183 -31.17971664 15.24384851 -31.25 19.25 C-29.85566933 22.87525975 -28.32230872 25.8177556 -25.25 28.25 C-19.78454202 30.07181933 -14.24067815 29.93768881 -8.8125 28.0625 C-5.8012664 25.93260306 -4.59806024 24.69504283 -3.25 21.25 C-2.61350152 17.42393693 -2.38735828 13.92558392 -4.19921875 10.40625 C-6.73971369 7.13646472 -9.24633683 5.20325314 -13.25 4.25 C-19.73931865 3.66006194 -23.8728803 4.93712678 -28.5625 9.5 Z " fill="#0C0C0C" transform="translate(322.25,122.75)"/>
<path d="M0 0 C4.75635836 3.3155338 8.32608742 6.31362049 10 12 C10.30078125 15.33984375 10.30078125 15.33984375 10.3125 18.9375 C10.32925781 20.12214844 10.34601563 21.30679688 10.36328125 22.52734375 C9.7024793 28.844042 6.79109314 32.97112622 2 37 C-3.48475136 39.85951233 -7.86275582 40.46767651 -14 40.375 C-15.15242188 40.39240234 -15.15242188 40.39240234 -16.328125 40.41015625 C-21.60532639 40.38323175 -25.28499487 39.37004247 -30 37 C-30 36.34 -30 35.68 -30 35 C-30.99 34.67 -31.98 34.34 -33 34 C-38.1639308 27.01350538 -38.58390017 21.48307799 -38 13 C-36.97450974 7.86314054 -34.04615873 4.4523341 -30.01171875 1.2890625 C-21.00490055 -4.48229674 -9.496973 -4.85931294 0 0 Z M-25.875 10.625 C-27.63316218 14.33667571 -28.23501798 17.89786803 -28 22 C-25.87649537 26.41035577 -23.58442255 29.20609552 -19 31 C-12.1914697 31.93790979 -7.50576059 31.12932045 -2 27 C0.40935775 24.06686882 0.42702305 20.76831635 0.30859375 17.02734375 C-0.22430091 13.5264282 -1.65018026 11.59082689 -4 9 C-11.67315575 4.7371357 -18.97284494 4.64313228 -25.875 10.625 Z " fill="#0D0D0D" transform="translate(425,121)"/>
<path d="M0 0 C12.87 0 25.74 0 39 0 C39 13.86 39 27.72 39 42 C35.7 42 32.4 42 29 42 C29 31.11 29 20.22 29 9 C22.73 9 16.46 9 10 9 C10.33 9.99 10.66 10.98 11 12 C12.00500835 31.49248748 12.00500835 31.49248748 7 39 C4.54339696 41.45660304 3.69251968 41.96697662 0.21484375 42.1328125 C-0.86667969 42.13023437 -1.94820313 42.12765625 -3.0625 42.125 C-4.68865234 42.12886719 -4.68865234 42.12886719 -6.34765625 42.1328125 C-9 42 -9 42 -10 41 C-10.07179964 39.48071962 -10.08392007 37.95832518 -10.0625 36.4375 C-10.05347656 35.61121094 -10.04445313 34.78492188 -10.03515625 33.93359375 C-10.02355469 33.29550781 -10.01195312 32.65742188 -10 32 C-8.329375 32.061875 -8.329375 32.061875 -6.625 32.125 C-2.95633975 32.41121859 -2.95633975 32.41121859 -1 30 C0.18385622 26.66185236 0.11488934 23.43742567 0.09765625 19.921875 C0.09515869 18.87612305 0.09266113 17.83037109 0.09008789 16.75292969 C0.08098389 15.43196289 0.07187988 14.11099609 0.0625 12.75 C0.041875 8.5425 0.02125 4.335 0 0 Z " fill="#0C0C0C" transform="translate(446,119)"/>
<path d="M0 0 C12.54 0 25.08 0 38 0 C38 2.64 38 5.28 38 8 C29.42 8 20.84 8 12 8 C12.33 10.64 12.66 13.28 13 16 C20.59 16.33 28.18 16.66 36 17 C36 19.64 36 22.28 36 25 C28.41 25.33 20.82 25.66 13 26 C12.67 28.31 12.34 30.62 12 33 C20.58 33 29.16 33 38 33 C38 35.97 38 38.94 38 42 C25.46 42 12.92 42 0 42 C0.66 37.71 1.32 33.42 2 29 C2.16402055 26.33707814 2.26130485 23.66794448 2.25 21 C2.25515625 19.783125 2.2603125 18.56625 2.265625 17.3125 C1.9078224 11.50346959 0.88497878 5.75236208 0 0 Z " fill="#0C0C0C" transform="translate(491,119)"/>
<path d="M0 0 C-0.33 0.66 -0.66 1.32 -1 2 C-2.67896362 1.9685791 -2.67896362 1.9685791 -4.3918457 1.93652344 C-34.92131128 1.4178264 -64.43856482 2.83682592 -94.46386719 8.69238281 C-124.40231815 14.46665038 -155.75204534 11.60986034 -185 4 C-185 3.67 -185 3.34 -185 3 C-178.07076452 2.87168082 -171.35901165 3.49989634 -164.48046875 4.2890625 C-150.77193938 5.72773875 -137.18043511 5.01013278 -123.5 3.75 C-122.40147705 3.65212692 -122.40147705 3.65212692 -121.28076172 3.55227661 C-109.83905009 2.52447497 -98.58393086 0.93989579 -87.2734375 -1.0859375 C-79.55604709 -2.46034399 -71.80704803 -3.32888659 -64 -4 C-63.2874707 -4.06316406 -62.57494141 -4.12632812 -61.84082031 -4.19140625 C-40.95127051 -5.95328842 -20.50071998 -4.22193045 0 0 Z " fill="#08335D" transform="translate(577,196)"/>
<path d="M0 0 C71.87149188 -1.08567208 71.87149188 -1.08567208 87 9 C86.11666992 8.96447021 85.23333984 8.92894043 84.32324219 8.89233398 C65.45884939 8.1618083 46.82665975 8.02407961 27.95800781 8.88574219 C21.639718 9.1297963 15.32147124 9.08834354 9 9 C12.02093215 5.97906785 15.56372072 6.53323166 19.625 6.375 C20.42679687 6.33632812 21.22859375 6.29765625 22.0546875 6.2578125 C24.03607556 6.16346069 26.01800645 6.08063785 28 6 C27.67 4.68 27.34 3.36 27 2 C18.09 1.67 9.18 1.34 0 1 C0 0.67 0 0.34 0 0 Z " fill="#0E64B2" transform="translate(490,174)"/>
<path d="M0 0 C12.54 0 25.08 0 38 0 C37.67 1.32 37.34 2.64 37 4 C36.34 4 35.68 4 35 4 C35 4.66 35 5.32 35 6 C31.68751813 6.02888146 28.37506833 6.04675799 25.0625 6.0625 C24.11697266 6.07087891 23.17144531 6.07925781 22.19726562 6.08789062 C20.84858398 6.09272461 20.84858398 6.09272461 19.47265625 6.09765625 C18.22367554 6.10551147 18.22367554 6.10551147 16.94946289 6.11352539 C15 6 15 6 14 5 C12.51361008 4.84344973 11.02050873 4.74933057 9.52734375 4.68359375 C8.17866211 4.62075195 8.17866211 4.62075195 6.80273438 4.55664062 C5.85720703 4.51732422 4.91167969 4.47800781 3.9375 4.4375 C2.98810547 4.39431641 2.03871094 4.35113281 1.06054688 4.30664062 C-1.29281353 4.20020724 -3.64628354 4.09818992 -6 4 C-5.67 3.34 -5.34 2.68 -5 2 C-3.35 2.33 -1.7 2.66 0 3 C0 2.01 0 1.02 0 0 Z " fill="#0161BC" transform="translate(382,183)"/>
<path d="M0 0 C1.45742463 -0.08096803 2.91612807 -0.13917774 4.375 -0.1875 C5.18710937 -0.22230469 5.99921875 -0.25710937 6.8359375 -0.29296875 C7.55007813 -0.19628906 8.26421875 -0.09960938 9 0 C9.66 0.99 10.32 1.98 11 3 C13.97065509 2.65772428 13.97065509 2.65772428 17 2 C17.33 1.34 17.66 0.68 18 0 C20.97 0 23.94 0 27 0 C25.85883361 4.56466555 24.42365848 5.91035699 21 9 C16.35572589 11.32213705 10.3528111 10.41814161 5.5625 8.9375 C2.10205222 6.32106387 1.38292453 4.07194444 0 0 Z " fill="#0E0E0E" transform="translate(544,107)"/>
<path d="M0 0 C3.86406555 5.00774012 7.04211418 9.38892106 6.9375 15.875 C6 19 6 19 3 21 C-3.45283019 20.54716981 -3.45283019 20.54716981 -6 18 C-7.20939501 10.89480432 -3.60285096 5.9296922 0 0 Z " fill="#033464" transform="translate(305,129)"/>
<path d="M0 0 C2 3 2 3 3 6 C3.99 6.66 4.98 7.32 6 8 C4.02 10.64 2.04 13.28 0 16 C-1.32 15.34 -2.64 14.68 -4 14 C-4 13.34 -4 12.68 -4 12 C-4.99 11.67 -5.98 11.34 -7 11 C-5.5140084 6.40693504 -3.14985318 3.56430755 0 0 Z " fill="#121112" transform="translate(562,126)"/>
<path d="M0 0 C21.53191489 1 21.53191489 1 32 2 C32 2.33 32 2.66 32 3 C30.35 3 28.7 3 27 3 C27.66 4.32 28.32 5.64 29 7 C22.51093459 6.33425862 16.32918678 4.99578944 10 3.4375 C9.03449219 3.20353516 8.06898438 2.96957031 7.07421875 2.72851562 C4.71515983 2.15626866 2.35715708 1.58002171 0 1 C0 0.67 0 0.34 0 0 Z " fill="#0D5EAF" transform="translate(333,178)"/>
<path d="M0 0 C3.86406555 5.00774012 7.04211418 9.38892106 6.9375 15.875 C6 19 6 19 3 21 C-3.45283019 20.54716981 -3.45283019 20.54716981 -6 18 C-7.20939501 10.89480432 -3.60285096 5.9296922 0 0 Z M0 4 C-3.2883245 7.2883245 -3.57556163 10.55779858 -4.08203125 14.9765625 C-4.21956497 17.23235733 -4.21956497 17.23235733 -2 19 C0.90718056 19.37271546 2.41082793 19.39278138 4.875 17.75 C6.19990442 16.08943318 6.19990442 16.08943318 5.8125 14.1875 C5.544375 13.465625 5.27625 12.74375 5 12 C4.649375 10.9275 4.29875 9.855 3.9375 8.75 C3.628125 7.8425 3.31875 6.935 3 6 C2.34 6 1.68 6 1 6 C0.67 5.34 0.34 4.68 0 4 Z " fill="#0F2C4C" transform="translate(305,129)"/>
<path d="M0 0 C0.33 0.66 0.66 1.32 1 2 C-6.92 2.495 -6.92 2.495 -15 3 C-14.01 3.33 -13.02 3.66 -12 4 C-12 4.66 -12 5.32 -12 6 C-9.03 6 -6.06 6 -3 6 C-3 6.33 -3 6.66 -3 7 C-9.37305598 7.74507544 -15.58311325 8.10349817 -22 8 C-21.34 7.34 -20.68 6.68 -20 6 C-20.33 5.34 -20.66 4.68 -21 4 C-20.01 4 -19.02 4 -18 4 C-18 3.34 -18 2.68 -18 2 C-19.98 2.33 -21.96 2.66 -24 3 C-23.67 2.34 -23.34 1.68 -23 1 C-20.10425766 0.83160792 -17.20842326 0.66522615 -14.3125 0.5 C-13.08756836 0.42845703 -13.08756836 0.42845703 -11.83789062 0.35546875 C-7.88646942 0.13150156 -3.95981243 -0.06451833 0 0 Z " fill="#113C63" transform="translate(536,191)"/>
<path d="M0 0 C0 0.33 0 0.66 0 1 C-1.30324219 1.05607422 -1.30324219 1.05607422 -2.6328125 1.11328125 C-8.97749884 1.47522644 -13.3250292 2.09945937 -19 5 C-22.34917497 5.25411039 -25.64823204 5.17884928 -29 5 C-29 4.34 -29 3.68 -29 3 C-30.65 2.67 -32.3 2.34 -34 2 C-34 1.67 -34 1.34 -34 1 C-22.64906646 0.26429134 -11.37473908 -0.13947228 0 0 Z " fill="#053665" transform="translate(553,192)"/>
<path d="M0 0 C-1.98 0.99 -1.98 0.99 -4 2 C-1.64046906 4.35953094 -0.22104383 4.49141413 3 5 C2.67 5.66 2.34 6.32 2 7 C-3.51671831 8.52250148 -9.28062226 9.30915555 -15 9 C-15 8.34 -15 7.68 -15 7 C-13.72125 6.87625 -12.4425 6.7525 -11.125 6.625 C-7.65209064 6.30957601 -7.65209064 6.30957601 -5 4 C-6.11126659 2.66098208 -6.11126659 2.66098208 -8.94140625 2.90234375 C-10.13636719 2.91394531 -11.33132813 2.92554688 -12.5625 2.9375 C-13.76003906 2.94652344 -14.95757812 2.95554688 -16.19140625 2.96484375 C-17.58166016 2.98224609 -17.58166016 2.98224609 -19 3 C-19 2.67 -19 2.34 -19 2 C-12.6221448 0.82706111 -6.49678438 -0.29530838 0 0 Z " fill="#0E3559" transform="translate(502,194)"/>
<path d="M0 0 C3.47914941 -0.02887814 6.95826831 -0.04675687 10.4375 -0.0625 C11.92733398 -0.07506836 11.92733398 -0.07506836 13.44726562 -0.08789062 C14.39150391 -0.09111328 15.33574219 -0.09433594 16.30859375 -0.09765625 C17.62041626 -0.10551147 17.62041626 -0.10551147 18.95874023 -0.11352539 C21 0 21 0 22 1 C23.34015221 1.15582303 24.68758903 1.25044142 26.03515625 1.31640625 C27.24848633 1.37924805 27.24848633 1.37924805 28.48632812 1.44335938 C29.33646484 1.48267578 30.18660156 1.52199219 31.0625 1.5625 C31.91650391 1.60568359 32.77050781 1.64886719 33.65039062 1.69335938 C35.76672037 1.79976702 37.88333813 1.90041731 40 2 C40 2.33 40 2.66 40 3 C26.49959855 3.24179823 13.39609967 2.71470076 0 1 C0 0.67 0 0.34 0 0 Z " fill="#1B64A8" transform="translate(375,187)"/>
<path d="M0 0 C0.66 0.33 1.32 0.66 2 1 C2 1.99 2 2.98 2 4 C3.98 3.34 5.96 2.68 8 2 C8.33 3.32 8.66 4.64 9 6 C6.525 7.485 6.525 7.485 4 9 C4 8.34 4 7.68 4 7 C2.02 7.66 0.04 8.32 -2 9 C-3 6 -3 6 -1.5625 2.8125 C-1.046875 1.884375 -0.53125 0.95625 0 0 Z " fill="#0E0F0F" transform="translate(265,130)"/>
<path d="M0 0 C3.3 0 6.6 0 10 0 C9.01 1.1446875 9.01 1.1446875 8 2.3125 C5.70149462 4.84277939 5.70149462 4.84277939 6 8 C4.02 8 2.04 8 0 8 C0 5.36 0 2.72 0 0 Z " fill="#0262BE" transform="translate(453,179)"/>
<path d="M0 0 C5.60461531 0.42089996 10.72086547 0.91613111 16 3 C16 3.33 16 3.66 16 4 C1.15 3.505 1.15 3.505 -14 3 C-14 2.67 -14 2.34 -14 2 C-9.38 2 -4.76 2 0 2 C0 1.34 0 0.68 0 0 Z " fill="#1F659F" transform="translate(561,179)"/>
<path d="M0 0 C6.6 0.33 13.2 0.66 20 1 C19.01 1.33 18.02 1.66 17 2 C17 2.66 17 3.32 17 4 C17.66 4.33 18.32 4.66 19 5 C12.51527007 4.26309887 6.30760257 2.64681249 0 1 C0 0.67 0 0.34 0 0 Z " fill="#1C5692" transform="translate(333,178)"/>
<path d="M0 0 C2.31 0 4.62 0 7 0 C7 0.99 7 1.98 7 3 C5.7934375 2.9690625 5.7934375 2.9690625 4.5625 2.9375 C2.06645115 2.70366379 2.06645115 2.70366379 1 4 C-1.35694954 3.90968426 -3.71153582 3.75311872 -6.0625 3.5625 C-7.35285156 3.46066406 -8.64320313 3.35882813 -9.97265625 3.25390625 C-11.47119141 3.12822266 -11.47119141 3.12822266 -13 3 C-13 2.67 -13 2.34 -13 2 C-8.71 2 -4.42 2 0 2 C0 1.34 0 0.68 0 0 Z " fill="#0D60B2" transform="translate(375,183)"/>
<path d="M0 0 C0.66 0.33 1.32 0.66 2 1 C1.01 3.97 0.02 6.94 -1 10 C-2.32 9.67 -3.64 9.34 -5 9 C-3.90931332 5.22454612 -3.0916909 2.52956528 0 0 Z " fill="#131313" transform="translate(393,124)"/>
<path d="M0 0 C1.94385053 1.35224385 2.87012525 2.57520133 3.5625 4.83984375 C4.21891704 8.51167658 4.45933041 10.29333782 2.375 13.5 C-0.35463289 15.22397867 -1.83157817 15.35204687 -5 15 C-4.401875 14.731875 -3.80375 14.46375 -3.1875 14.1875 C-0.95406717 12.97506504 0.49938199 12.05347727 2 10 C1.79623822 8.09415804 1.79623822 8.09415804 1 6 C0.65421232 4.00211562 0.31856451 2.00240549 0 0 Z " fill="#0A2745" transform="translate(308,135)"/>
<path d="M0 0 C0.66 0.33 1.32 0.66 2 1 C2.625 3.0625 2.625 3.0625 3 5 C2.34 5 1.68 5 1 5 C0.67 6.32 0.34 7.64 0 9 C-0.66 9 -1.32 9 -2 9 C-3 6 -3 6 -1.5625 2.8125 C-1.046875 1.884375 -0.53125 0.95625 0 0 Z " fill="#161315" transform="translate(265,130)"/>
<path d="M0 0 C1.258125 -0.04125 2.51625 -0.0825 3.8125 -0.125 C4.52019531 -0.14820313 5.22789062 -0.17140625 5.95703125 -0.1953125 C8 0 8 0 11 2 C6.99799622 3.60080151 3.95443764 2.29279692 0 1 C0 0.67 0 0.34 0 0 Z " fill="#224261" transform="translate(392,199)"/>
</svg>
