<svg width="240" height="240" viewBox="0 0 240 240" fill="none" xmlns="http://www.w3.org/2000/svg">
<path d="M160.312 47.2313C148.934 34.0824 136.127 22.2408 122.128 11.925C121.499 11.4854 120.749 11.2496 119.981 11.2496C119.213 11.2496 118.464 11.4854 117.834 11.925C103.849 22.243 91.0548 34.0846 79.6875 47.2313C54.5344 76.1344 41.25 106.481 41.25 135C41.25 155.886 49.5468 175.916 64.3153 190.685C79.0838 205.453 99.1142 213.75 120 213.75C140.886 213.75 160.916 205.453 175.685 190.685C190.453 175.916 198.75 155.886 198.75 135C198.75 106.481 185.466 76.1344 160.312 47.2313ZM120 206.25C101.109 206.23 82.9982 198.717 69.6406 185.359C56.2829 172.002 48.7699 153.891 48.75 135C48.75 101.344 68.5781 71.4375 85.2188 52.275C95.698 40.281 107.35 29.3643 120 19.6875C132.652 29.3761 144.304 40.3054 154.781 52.3125C171.422 71.4375 191.25 101.344 191.25 135C191.23 153.891 183.717 172.002 170.359 185.359C157.002 198.717 138.891 206.23 120 206.25ZM168.694 143.128C166.89 153.227 162.033 162.531 154.778 169.784C147.523 177.038 138.218 181.892 128.119 183.694C127.915 183.731 127.708 183.75 127.5 183.75C126.564 183.743 125.664 183.386 124.978 182.75C124.292 182.114 123.868 181.244 123.791 180.311C123.713 179.378 123.987 178.45 124.559 177.709C125.131 176.968 125.959 176.468 126.881 176.306C143.925 173.437 158.409 158.953 161.306 141.872C161.508 140.925 162.068 140.094 162.868 139.55C163.669 139.007 164.649 138.794 165.603 138.956C166.557 139.119 167.411 139.643 167.987 140.421C168.563 141.198 168.816 142.168 168.694 143.128Z" fill="black"/>
</svg>
